A spaceship arrives in Arizona, 1873, to take over the Earth, starting with the Wild West region. A posse of cowboys and natives are all that stand in their way.

 Cowboys.And.Aliens.2011.EXTENDED.H.264-nenad023.mkv


General
Complete name            :Cowboys.And.Aliens.2011.EXTENDED.H.264-nenad023.mkv
Format                           : Matroska
Format version            : Version 1
File size                          : 1.32 GiB
Duration                       : 2h 15mn


Video

Format                                          : AVC
Format/Info                                 : Advanced Video Codec
Format profile                             : Main@L5.1
Format settings, CABAC          : Yes
Format settings, ReFrames     : 1 frame
Codec ID                                       : V_MPEG4/ISO/AVC
Duration                                      : 2h 15mn
Bit rate                                         : 1 174 Kbps
Width                                            : 1 280 pixels
Height                                          : 528 pixels
Display aspect ratio                  : 2.40:1
Frame rate                                  : 23.976 fps
Color space                                 : YUV
Chroma subsampling              : 4:2:0
Bit depth                                     : 8 bits
Scan type                                    : Progressive
Bits/(Pixel*Frame)                   : 0.072
Stream size                                : 1.11 GiB (84%)
Default                                       : Yes
Forced                                         : No

Audio
ID                                               : 2
Format                                      : MPEG Audio
Format version                       : Version 1
Format profile                        : Layer 3
Codec ID                                  : A_MPEG/L3
Codec ID/Hint                        : MP3
Duration                                 : 2h 15mn
Bit rate mode                         : Constant
Bit rate                                    : 192 Kbps
Channel(s)                              : 2 channels
Sampling rate                        : 44.1 KHz
Compression mode               : Lossy
Stream size                             : 186 MiB (14%)
Writing library                       : LAMELAME_MAJOR_VERSI
Default                                    : Yes
Forced                                      : No